# xmcd
#
# Track frame offsets: 
#        150
#        21495
#        38800
#        54041
#        70316
#        86587
#
# Disc length: 1386 seconds
#
# Revision: 0
# Processed by: cddbd v1.5.2PL0 Copyright (c) Steve Scherf et al.
# Submitted via: ExactAudioCopy v0.95b4
#
DISCID=46056806
DTITLE=Hefel - Original Party Sound
DYEAR=1900
DGENRE=Rock
TTITLE0=Florian der Flammenwerfer
TTITLE1=Die Buben
TTITLE2=Freeway Heidi
TTITLE3=Z'Basel
TTITLE4=Irish Noodles
TTITLE5=Never Mind
EXTD=
EXTT0=
EXTT1=
EXTT2=
EXTT3=
EXTT4=
EXTT5=
PLAYORDER=
